<svg xmlns="http://www.w3.org/2000/svg" width="512" height="512" viewBox="0 0 512 512">
  <rect width="512" height="512" fill="#ffffff"/>
  <g transform="translate(87.65 56) scale(0.34331)">
    <g transform="matrix(1 0 0 -1 -139.93 1178.36)" fill="#29ADE3">
      <path d="M540.17 1148.77C464.88 1178.36 379.41 1140.99 349.64 1065.45L169.70 608.84C139.93 533.30 176.97 447.78 252.26 418.18C327.55 388.59 413.02 425.96 442.78 501.50L622.72 958.11C652.49 1033.64 615.45 1119.17 540.17 1148.77M524.74 1109.63C578.38 1088.54 604.92 1027.26 583.71 973.44L403.77 516.83C382.56 463.02 321.32 436.24 267.68 457.32C214.04 478.41 187.51 539.69 208.72 593.50L388.66 1050.11C409.86 1103.93 471.10 1130.71 524.74 1109.63Z"/>
      <path d="M349.21 664.20C305.32 681.45 255.50 659.66 238.15 615.63C220.80 571.60 242.39 521.75 286.27 504.50C330.16 487.25 379.98 509.04 397.33 553.06C414.68 597.09 393.09 646.95 349.21 664.20M333.78 625.05C356.19 616.25 367.17 590.88 358.32 568.40C349.46 545.92 324.11 534.83 301.70 543.64C279.29 552.45 268.31 577.82 277.17 600.30C286.03 622.78 311.37 633.86 333.78 625.05Z"/>
      <path d="M427.79 863.60C383.90 880.85 334.09 859.07 316.73 815.04C299.38 771.01 320.97 721.16 364.86 703.91C408.74 686.66 458.56 708.44 475.91 752.47C493.26 796.50 471.67 846.35 427.79 863.60M412.36 824.46C434.77 815.65 445.76 790.29 436.90 767.81C428.04 745.32 402.69 734.24 380.28 743.05C357.87 751.86 346.89 777.22 355.75 799.70C364.61 822.19 389.96 833.27 412.36 824.46Z"/>
      <path d="M506.37 1063.01C462.49 1080.26 412.67 1058.48 395.32 1014.45C377.97 970.42 399.55 920.56 443.44 903.31C487.32 886.06 537.14 907.85 554.49 951.88C571.84 995.91 550.26 1045.76 506.37 1063.01M490.95 1023.87C513.35 1015.06 524.34 989.70 515.48 967.21C506.62 944.73 481.27 933.65 458.86 942.46C436.45 951.26 425.47 976.63 434.33 999.11C443.19 1021.59 468.54 1032.68 490.95 1023.87Z"/>
      <path d="M1008.33 964.74C933.04 994.33 847.58 956.96 817.81 881.42L637.87 424.81C608.10 349.28 645.14 263.75 720.43 234.15C795.71 204.56 881.18 241.93 910.95 317.47L1090.89 774.08C1120.66 849.62 1083.62 935.15 1008.33 964.74M992.91 925.60C1046.55 904.51 1073.08 843.23 1051.88 789.42L871.94 332.81C850.73 278.99 789.49 252.21 735.85 273.30C682.21 294.38 655.68 355.66 676.88 409.48L856.82 866.09C878.03 919.90 939.27 946.68 992.91 925.60Z"/>
      <path d="M817.38 480.17C773.49 497.42 723.67 475.63 706.32 431.61C688.97 387.58 710.56 337.72 754.44 320.47C798.33 303.22 848.15 325.01 865.50 369.04C882.85 413.07 861.26 462.92 817.38 480.17M801.95 441.03C824.36 432.22 835.34 406.85 826.48 384.37C817.62 361.89 792.28 350.81 769.87 359.61C747.46 368.42 736.48 393.79 745.33 416.27C754.19 438.75 779.54 449.84 801.95 441.03Z"/>
      <path d="M895.96 679.58C852.07 696.83 802.25 675.04 784.90 631.01C767.55 586.98 789.14 537.13 833.02 519.88C876.91 502.63 926.73 524.42 944.08 568.44C961.43 612.47 939.84 662.33 895.96 679.58M880.53 640.44C902.94 631.63 913.92 606.26 905.07 583.78C896.21 561.30 870.86 550.21 848.45 559.02C826.04 567.83 815.06 593.20 823.92 615.68C832.78 638.16 858.12 649.24 880.53 640.44Z"/>
      <path d="M974.54 878.98C930.65 896.23 880.83 874.45 863.48 830.42C846.13 786.39 867.72 736.54 911.61 719.29C955.49 702.04 1005.31 723.82 1022.66 767.85C1040.01 811.88 1018.42 861.73 974.54 878.98M959.11 839.84C981.52 831.03 992.51 805.67 983.65 783.19C974.79 760.70 949.44 749.62 927.03 758.43C904.62 767.24 893.64 792.60 902.50 815.08C911.36 837.57 936.71 848.65 959.11 839.84Z"/>
      <path d="M663.19 773.42C587.90 803.01 502.44 765.63 472.67 690.10L292.73 233.49C262.96 157.95 300.00 72.42 375.29 42.83C450.57 13.24 536.04 50.61 565.81 126.15L745.75 582.76C775.52 658.29 738.48 743.82 663.19 773.42M647.77 734.27C701.41 713.19 727.94 651.91 706.74 598.09L526.80 141.48C505.59 87.67 444.35 60.89 390.71 81.97C337.07 103.06 310.54 164.34 331.74 218.15L511.68 674.76C532.89 728.58 594.13 755.36 647.77 734.27Z"/>
      <path d="M472.24 288.85C428.35 306.10 378.53 284.31 361.18 240.28C343.83 196.25 365.42 146.40 409.30 129.15C453.19 111.90 503.01 133.69 520.36 177.71C537.71 221.74 516.12 271.60 472.24 288.85M456.81 249.70C479.22 240.90 490.20 215.53 481.34 193.05C472.48 170.57 447.14 159.48 424.73 168.29C402.32 177.10 391.34 202.47 400.19 224.95C409.05 247.43 434.40 258.51 456.81 249.70Z"/>
      <path d="M550.82 488.25C506.93 505.50 457.11 483.72 439.76 439.69C422.41 395.66 444.00 345.81 487.88 328.56C531.77 311.31 581.59 333.09 598.94 377.12C616.29 421.15 594.70 471.00 550.82 488.25M535.39 449.11C557.80 440.30 568.78 414.94 559.93 392.46C551.07 369.97 525.72 358.89 503.31 367.70C480.90 376.51 469.92 401.87 478.78 424.35C487.64 446.84 512.98 457.92 535.39 449.11Z"/>
      <path d="M629.40 687.66C585.51 704.91 535.69 683.12 518.34 639.10C500.99 595.07 522.58 545.21 566.47 527.96C610.35 510.71 660.17 532.50 677.52 576.53C694.87 620.56 673.28 670.41 629.40 687.66M613.97 648.52C636.38 639.71 647.37 614.34 638.51 591.86C629.65 569.38 604.30 558.30 581.89 567.10C559.48 575.91 548.50 601.28 557.36 623.76C566.22 646.24 591.57 657.33 613.97 648.52Z"/>
    </g>
  </g>
</svg>
